<?xml version="1.0" encoding="UTF-8" standalone="no"?>
<!DOCTYPE svg PUBLIC "-//W3C//DTD SVG 1.0//EN" "http://www.w3.org/TR/2001/REC-SVG-20010904/DTD/svg10.dtd">
<svg xmlns="http://www.w3.org/2000/svg" xmlns:xlink="http://www.w3.org/1999/xlink" fill-rule="evenodd" height="8.947916666666666in" preserveAspectRatio="none" stroke-linecap="round" viewBox="0 0 1128 644" width="15.65625in">
<style type="text/css">
.brush0 { fill: rgb(255,255,255); }
.pen0 { stroke: rgb(0,0,0); stroke-width: 1; stroke-linejoin: round; }
.font0 { font-size: 11px; font-family: "MS Sans Serif"; }
.pen1 { stroke: rgb(0,0,0); stroke-width: 14; stroke-linejoin: round; }
.brush1 { fill: none; }
.font1 { font-weight: bold; font-size: 16px; font-family: System, sans-serif; }
</style>
<g>
<circle class="pen1" cx="83.5" cy="449.5" fill="none" r="63.5"/>
<line class="pen1" fill="none" x1="129" x2="38" y1="404" y2="495"/>
<line class="pen1" fill="none" x1="38" x2="129" y1="404" y2="495"/>
<path class="pen1" d="M 51.36038969321073,385.3603896932107 A 90.0,90.0 0 0 0 52.36240432850266,513.6260907721797" fill="none"/>
<line class="pen1" fill="none" x1="52" x2="308" y1="386" y2="386"/>
<line class="pen1" fill="none" x1="52" x2="308" y1="514" y2="514"/>
<circle class="pen1" cx="275.5" cy="449.5" fill="none" r="63.5"/>
<line class="pen1" fill="none" x1="321" x2="230" y1="404" y2="495"/>
<line class="pen1" fill="none" x1="230" x2="321" y1="404" y2="495"/>
<path class="pen1" d="M 306.6396103067893,512.6396103067892 A 90.0,90.0 0 0 0 306.1365538062889,384.86127867297637" fill="none"/>
<line class="pen1" fill="none" x1="404" x2="532" y1="514" y2="258"/>
<line class="pen1" fill="none" x1="532" x2="660" y1="258" y2="514"/>
<line class="pen1" fill="none" x1="404" x2="532" y1="514" y2="514"/>
<line class="pen1" fill="none" x1="660" x2="788" y1="514" y2="514"/>
<line class="pen1" fill="none" x1="852" x2="980" y1="514" y2="514"/>
<line class="pen1" fill="none" x1="852" x2="852" y1="386" y2="514"/>
<line class="pen1" fill="none" x1="1108" x2="852" y1="258" y2="514"/>
<line class="pen1" fill="none" x1="980" x2="1108" y1="258" y2="258"/>
<line class="pen1" fill="none" x1="1108" x2="1108" y1="258" y2="386"/>
</g>
</svg>
